<svg xmlns="http://www.w3.org/2000/svg" xmlns:xlink="http://www.w3.org/1999/xlink" viewBox="0 0 395.48 217.57"><defs><style>.cls-1,.cls-2{fill:#0260b8;}.cls-2,.cls-3{fill-rule:evenodd;}.cls-3{fill:#4288cc;}.cls-4{clip-path:url(#clip-path);}.cls-5{clip-path:url(#clip-path-2);}.cls-6{fill:#f1f1f2;}</style><clipPath id="clip-path" transform="translate(57.99 57.22)"><path id="SVGID" class="cls-1" d="M82.36,71.09l-12.3,9.6a.4.4,0,0,1-.64-.32V61.17a.39.39,0,0,1,.64-.31l12.3,9.6A.39.39,0,0,1,82.36,71.09Z"/></clipPath><clipPath id="clip-path-2" transform="translate(57.99 57.22)"><rect id="SVGID-2" data-name="SVGID" class="cls-1" x="-57.99" y="-57.22" width="395.48" height="217.57"/></clipPath></defs><g id="Camada_2" data-name="Camada 2"><g id="Layer_1" data-name="Layer 1"><path class="cls-2" d="M25.64,101.17,0,28.57H17.16l16.68,49.9v0l-1.78,22.68S25.65,101.19,25.64,101.17Z" transform="translate(57.99 57.22)"/><path class="cls-3" d="M25.63,100,51,28.43H68.66L41.77,101.11a1.6,1.6,0,0,1-1.5,1H27.14A1.6,1.6,0,0,1,25.63,100Z" transform="translate(57.99 57.22)"/><path id="SVGID-3" data-name="SVGID" class="cls-1" d="M82.36,71.09l-12.3,9.6a.4.4,0,0,1-.64-.32V61.17a.39.39,0,0,1,.64-.31l12.3,9.6A.39.39,0,0,1,82.36,71.09Z" transform="translate(57.99 57.22)"/><g class="cls-4"><rect id="SVGID-4" data-name="SVGID" class="cls-1" width="395.48" height="217.57"/><g class="cls-5"><rect class="cls-1" x="126.38" y="116.54" width="15.4" height="22.9"/></g></g><path class="cls-6" d="M97.51,82.31V0h16.35V83.16c0,4,1.81,5.45,3.52,5.45a22.43,22.43,0,0,0,4.13-.29l.46,11.94a22.16,22.16,0,0,1-8.62,1.69C101.77,102,97.51,94.46,97.51,82.31Z" transform="translate(57.99 57.22)"/><path class="cls-6" d="M132.22,81.51c0-14.93,12.37-22.7,41-25.77C173,48.25,170,42,160.54,42c-6.92,0-13.45,3.12-19.58,6.86l-6-10.9c7.67-4.82,17.54-9.13,28.61-9.13,17.43,0,26,10.72,26,30.14v41.27h-13.4l-1.25-7.72h-.45c-6.24,5.33-13.4,9.42-21.63,9.42C140.62,102,132.22,93.66,132.22,81.51Zm41,.06V65.9C154.3,68.29,148,73.23,148,80.26c0,6.16,4.2,8.86,10.05,8.86C163.72,89.12,168,86.34,173.2,81.57Z" transform="translate(57.99 57.22)"/><path class="cls-6" d="M216.71,92.92h-.45l-1.42,7.33H202V0H218.3V25.94l-.46,11.58c5.82-5.11,13-8.68,20.13-8.68,17.42,0,27.5,14,27.5,35.39,0,23.92-14.25,37.72-29.75,37.72C229.37,102,222.56,98.71,216.71,92.92Zm32-28.44c0-13.9-4.54-22.13-15.16-22.13-5,0-9.93,1.43-15.21,6.71V81.45c4.88,4.25,9.93,7,14,7C241.57,88.44,248.67,80.26,248.67,64.48Z" transform="translate(57.99 57.22)"/></g></g></svg>